<svg width="550" height="550" viewBox="0 0 550 550" fill="none" xmlns="http://www.w3.org/2000/svg">
<g clip-path="url(#clip0_106_187)">
<rect width="550" height="550" rx="275" fill="white"/>
<path fill-rule="evenodd" clip-rule="evenodd" d="M470.652 176C470.652 175.448 470.204 175 469.652 175H80.3477C79.7954 175 79.3477 175.448 79.3477 176V374C79.3477 374.552 79.7954 375 80.3477 375H169.652C170.204 375 170.652 374.548 170.657 373.995C171.196 316.828 217.717 270.652 275.026 270.652C332.335 270.652 378.856 316.828 379.396 373.995C379.401 374.548 379.848 375 380.4 375H469.652C470.204 375 470.652 374.552 470.652 374V176Z" fill="#D80032"/>
</g>
<defs>
<clipPath id="clip0_106_187">
<rect width="550" height="550" fill="white"/>
</clipPath>
</defs>
</svg>
